<?xml version="1.0" encoding="utf-8"?>
<!-- Generator: Adobe Illustrator 21.1.0, SVG Export Plug-In . SVG Version: 6.00 Build 0)  -->
<svg version="1.1" id="Calque_1" xmlns="http://www.w3.org/2000/svg" xmlns:xlink="http://www.w3.org/1999/xlink" x="0px" y="0px"
	 viewBox="0 0 283.5 299.1" style="enable-background:new 0 0 283.5 299.1;" xml:space="preserve">
<style type="text/css">
	.st0{fill:#D8922B;}
	.st1{font-family:'Roboto-Black';}
	.st2{font-size:22.0126px;}
	.st3{font-size:21.96px;}
	.st4{font-size:21.9435px;}
	.st5{font-size:21.9512px;}
	.st6{font-size:21.8995px;}
	.st7{font-size:22.0586px;}
	.st8{font-size:22.0531px;}
	.st9{font-size:21.9874px;}
	.st10{font-size:22.052px;}
	.st11{font-size:21.9292px;}
	.st12{fill:#FFFFFF;}
	.st13{font-family:'Tahu!';}
	.st14{font-size:77.88px;}
</style>
<title>Fichier 20</title>
<g id="Calque_2">
	<g id="Calque_3">
		<circle class="st0" cx="144.2" cy="168.5" r="130.6"/>
		<text transform="matrix(0.4789 -0.8779 0.8779 0.4789 26.2496 112.5009)" class="st0 st1 st2">P</text>
		<text transform="matrix(0.5713 -0.8208 0.8208 0.5713 32.86 100.2803)" class="st0 st1 st3">O</text>
		<text transform="matrix(0.658 -0.753 0.753 0.658 41.27 88.1706)" class="st0 st1 st3">U</text>
		<text transform="matrix(0.7349 -0.6782 0.6782 0.7349 50.6101 77.4699)" class="st0 st1 st3">R</text>
		<text transform="matrix(0.8213 -0.5704 0.5704 0.8213 65.0899 64.7)" class="st0 st1 st3">+</text>
		<text transform="matrix(0.892 -0.4521 0.4521 0.892 78.9099 55.4101)" class="st0 st1 st3">D</text>
		<text transform="matrix(0.9207 -0.3903 0.3903 0.9207 91.4002 49.2503)" class="st0 st1 st4">’</text>
		<text transform="matrix(0.9404 -0.3401 0.3401 0.9404 96.1603 47.2402)" class="st0 st1 st5">I</text>
		<text transform="matrix(0.9627 -0.2707 0.2707 0.9627 102.0506 44.8802)" class="st0 st1 st6">N</text>
		<text transform="matrix(0.9856 -0.1692 0.1692 0.9856 116.5896 40.9501)" class="st0 st1 st7">F</text>
		<text transform="matrix(0.9977 -6.714462e-02 6.714462e-02 0.9977 128.04 38.92)" class="st0 st1 st3">O</text>
		<text transform="matrix(1 1.396263e-03 -1.396263e-03 1 141.61 38.12)" class="st0 st1 st3">,</text>
		<text transform="matrix(0.993 0.1184 -0.1184 0.993 152.58 38.1799)" class="st0 st1 st3">C</text>
		<text transform="matrix(0.9815 0.1917 -0.1917 0.9815 166.6 40.0099)" class="st0 st1 st3">’</text>
		<text transform="matrix(0.9659 0.2589 -0.2589 0.9659 171.6095 40.8596)" class="st0 st1 st8">E</text>
		<text transform="matrix(0.9372 0.3489 -0.3489 0.9372 183.17 43.8701)" class="st0 st1 st3">S</text>
		<text transform="matrix(0.8965 0.4431 -0.4431 0.8965 195.6902 48.51)" class="st0 st1 st3">T</text>
		<text transform="matrix(0.8257 0.5641 -0.5641 0.8257 211.8499 56.8099)" class="st0 st1 st3">P</text>
		<text transform="matrix(0.769 0.6392 -0.6392 0.769 221.8698 63.51)" class="st0 st1 st9">A</text>
		<text transform="matrix(0.6971 0.717 -0.717 0.6971 233.0598 72.8106)" class="st0 st1 st10">R</text>
		<text transform="matrix(0.6052 0.7961 -0.7961 0.6052 246.1199 87.0699)" class="st0 st1 st3">I</text>
		<text transform="matrix(0.5408 0.8412 -0.8412 0.5408 250.0892 92.0201)" class="st0 st1 st11">C</text>
		<text transform="matrix(0.4726 0.8813 -0.8813 0.4726 257.6098 103.98)" class="st0 st1 st3">I</text>
		<text transform="matrix(0.3903 0.9207 -0.9207 0.3903 262.9498 114.4501)" class="st0 st1 st4">!</text>
		<text transform="matrix(1 0 0 1 40.35 178.45)" class="st12 st13 st14">Le blog.</text>
	</g>
</g>
</svg>
