<svg xmlns="http://www.w3.org/2000/svg" viewBox="0 0 1920 1382.97"><defs><style>.cls-1{fill:#efa62d;opacity:0.8;}</style></defs><title>Fichier 1</title><g id="Calque_2" data-name="Calque 2"><g id="Calque_3" data-name="Calque 3"><path class="cls-1" d="M0,0V854.32L959.9,1383l959.9-528.65h.2V0ZM1078,356.58c-3.11,19-5.09,20.32-6.16,21-1.89,1.26-4.35,1.55-7.47,1.92a51.37,51.37,0,0,0-17.09,4.54c-.14.1-.58.49-.94.81-2.71,2.41-8.34,7.44-18.07,7.44-6.75,0-14.24-2.49-22.27-7.4-2.85,3.48-5.74,8.32-4.88,10.2.68,1.49,6,5.87,10.2,9.38,10.42,8.63,15.31,15.89,15.17,19.34-1,6.05-2.14,5.3-25.08,5.3-8.56,0-16.36-.39-16.44-.39a2,2,0,0,1-1.63-1c-2.9-4.58-11.36-19.86-15.69-22.51a2,2,0,0,1-.66-.65c-1.25-2-.48-5.62.75-9a33.24,33.24,0,0,1-12.8,2.24,63.16,63.16,0,0,1-12.17-1.3c-17.78-3.52-27.42-10.47-31.1-13.69l-6.6,8.6c3.05,5.66,13.95,26.56,12.92,34.37-.1,2.49-2.64,3.32-16.17,3.32-8.5,0-17.81-.41-17.9-.42a2,2,0,0,1-1.87-2.63c0-.14,4-15.1-14.72-36.35a2,2,0,0,1-.38-2.09c9.85-25.65,1.84-30.69,1.76-30.73a.54.54,0,0,1-.15-.09,4.25,4.25,0,0,0-1.89-.37c-2.3,0-7.11,1.37-13.53,10.57a2,2,0,0,1-3.68-1.6,168.24,168.24,0,0,1,12.38-34,8,8,0,0,1-4.34,1.31,7.57,7.57,0,0,1-3.64-1l-11.32-6.14a7.66,7.66,0,0,1,7.31-13.47,1.23,1.23,0,0,1,.49,1.67l-.77,1.42a1.23,1.23,0,0,1-1.67.49,3.36,3.36,0,0,0-2.72-.28,3.62,3.62,0,0,0-2.42,4.47,3.38,3.38,0,0,0,1.72,2.13l11.31,6.14a3.59,3.59,0,1,0,3.43-6.32,1.23,1.23,0,0,1-.49-1.67l.77-1.42a1.23,1.23,0,0,1,1.67-.49,7.45,7.45,0,0,1,3.72,4.57,7.92,7.92,0,0,1,.32,1.93c2-3.79,4.36-7.78,7-11.83a1.23,1.23,0,0,1-.71-.5l-15.19-22.28a1.23,1.23,0,0,1,1.45-1.84L882.92,298a1.22,1.22,0,0,1,.28.16c2.34-2.74,4.83-5.43,7.49-8a1.22,1.22,0,0,1-.44-.32l-17-19.31a1.23,1.23,0,0,1,.11-1.73l9.66-8.51a1.23,1.23,0,0,1,1.73.11l1.07,1.21a1.23,1.23,0,0,1-.11,1.73l-7.52,6.63,5.27,6,5.1-4.5a1.23,1.23,0,0,1,1.73.11l1.07,1.21a1.23,1.23,0,0,1-.11,1.73l-5.1,4.5,5.3,6,7.52-6.63a1.23,1.23,0,0,1,1.73.11l1.07,1.21a1.22,1.22,0,0,1,.3.66,102.24,102.24,0,0,1,8.53-5.76,1.18,1.18,0,0,1-.12-.16L897.57,252.1a1.23,1.23,0,0,1,.45-1.68l5.59-3.23A7.66,7.66,0,0,1,914,250a7.52,7.52,0,0,1,.92,5.25,7.36,7.36,0,0,1-1.43,3.24L926,264.61a1.2,1.2,0,0,1,.66,1.35q7-3.27,14-5.84a7.64,7.64,0,0,1-3-.65A7.4,7.4,0,0,1,933.9,256a1.13,1.13,0,0,1-.24-.41l-4.22-13A7.66,7.66,0,0,1,944,237.82l4,12.25a7.45,7.45,0,0,1-.46,5.87,7.55,7.55,0,0,1-2.08,2.55q7.2-2.35,14.51-4a1.21,1.21,0,0,1-.37-.73l-3-25.56a1.23,1.23,0,0,1,1.07-1.37l12.78-1.52a1.23,1.23,0,0,1,1.37,1.07L972,228a1.23,1.23,0,0,1-1.07,1.37l-10,1.19.94,7.91,6.75-.8a1.23,1.23,0,0,1,1.36,1.07l.19,1.6a1.23,1.23,0,0,1-1.07,1.36l-6.75.8.95,8,10-1.19a1.23,1.23,0,0,1,1.37,1.07l.19,1.61h0q5-.6,10-.86l.09-1.41a1.23,1.23,0,0,1,.42-.84,1.21,1.21,0,0,1,.89-.3l9.23.61a3.87,3.87,0,0,0,2.9-1,4,4,0,0,0,.37-5.63,3.86,3.86,0,0,0-2.75-1.35l-2.78-.18a1.23,1.23,0,0,1-.42-.1,7.76,7.76,0,0,1-4.89-2.82,8.07,8.07,0,0,1,6.2-13.21h.12l6.46.43a1.23,1.23,0,0,1,1.14,1.31l-.11,1.61a1.23,1.23,0,0,1-1.31,1.14l-6-.4a3.87,3.87,0,0,0-2.91,1,3.78,3.78,0,0,0-1.36,2.74,4,4,0,0,0,3.73,4.29l2.78.18a8.07,8.07,0,0,1,4.59,13.93h0q7.3.4,14.46,1.52l4-25.24a.41.41,0,0,1,.47-.34l4.2.67a.41.41,0,0,1,.34.47l-4.05,25.3a143.64,143.64,0,0,1,15.81,4,2,2,0,0,1,1.36,2.52l-8.68,30c1.24,1.32,3.57,3.84,4.65,5.23.4.51.82,1.43,2.62,5.52,3.07,7,8.58,19.48,14.55,29.06a48.77,48.77,0,0,0,9.13-17.57,2,2,0,0,1,4,.61c0,1.68,0,3.73.12,5.91.24,6.46.56,15.14-1.86,23.23a16.63,16.63,0,0,0,1.84.1A20.22,20.22,0,0,0,1077,337a2,2,0,0,1,3.46,1.71C1080.48,338.76,1079.44,347.58,1078,356.58Z"/></g></g></svg>